# xmcd
#
# Track frame offsets:
#	150
#	3807
#	21617
#	39351
#	58811
#	78745
#	98066
#	101904
#	123188
#	139735
#	158750
#	177013
#	201099
#	225847
#	244525
#	265000
#
# Disc length: 3550 seconds
#
# Revision: 0
# Processed by: cddbd v1.5.1PL0 Copyright (c) Steve Scherf et al.
# Submitted via: dBpowerAMP V4.0
#
DISCID=c40ddc10
DTITLE=Product G&B - Ghetto Blues
DYEAR=1900
DGENRE=R&B
TTITLE0=Morning Interlude
TTITLE1=Cluck Cluck
TTITLE2=Reap What You Sow
TTITLE3=Maria Maria (Featuring Santana and Wyclef Jean)
TTITLE4=Freak Freak
TTITLE5=Dirty Dancing (Featuring Santana and Wyclef Jean)
TTITLE6=Evening Interlude
TTITLE7=Scramble
TTITLE8=Whenever You Want It
TTITLE9=Blood Is Thicker Than Water
TTITLE10=What U Wanna Do
TTITLE11=Shorty
TTITLE12=Black Rose
TTITLE13=Wish You Well
TTITLE14=Fool Die
TTITLE15=Outro
EXTD=PG/GB--MDC
EXTT0=
EXTT1=
EXTT2=
EXTT3=
EXTT4=
EXTT5=
EXTT6=
EXTT7=
EXTT8=
EXTT9=
EXTT10=
EXTT11=
EXTT12=
EXTT13=
EXTT14=
EXTT15=
PLAYORDER=
